<mxfile host="app.diagrams.net" modified="2023-08-11T14:48:26.161Z" agent="Mozilla/5.0 (Windows NT 10.0; Win64; x64) AppleWebKit/537.36 (KHTML, like Gecko) Chrome/115.0.0.0 Safari/537.36" version="21.6.6" etag="VqJBUvb9Gw1iE5brxtbS" type="github">
  <diagram name="PÃ¡gina-1" id="OCQVt_zFbdHCXUs0rtO8">
    <mxGraphModel>
      <root>
        <mxCell id="0" />
        <mxCell id="1" parent="0" />
      </root>
    </mxGraphModel>
  </diagram>
</mxfile>
